<?xml version="1.0" encoding="utf-8"?>
<!-- Generator: Adobe Illustrator 19.2.1, SVG Export Plug-In . SVG Version: 6.00 Build 0)  -->
<svg version="1.1" id="Layer_1" xmlns="http://www.w3.org/2000/svg" xmlns:xlink="http://www.w3.org/1999/xlink" x="0px" y="0px"
	 viewBox="0 0 66 65.7" style="enable-background:new 0 0 66 65.7;" xml:space="preserve">
<style type="text/css">
	.st0{fill:#FCB315;}
	.st1{fill:#41C3DB;}
</style>
<path class="st0" d="M65.6,40.6c-0.3-0.1-0.7-0.2-1.3-0.3c-1.1-0.2-2.7-0.5-4.6-0.8c-1.9-0.3-4.1-0.5-6.5-0.7
	c-0.6-0.1-1.2-0.1-1.8-0.1c-0.2,0-0.3,0-0.5,0c-0.1-2.7-0.7-5.3-1.6-7.8c0.1-0.1,0.3-0.1,0.4-0.2c0.5-0.3,1.1-0.5,1.6-0.8
	c2.1-1.1,4-2.2,5.6-3.2c1.6-1,3-1.9,3.9-2.5c0.5-0.3,0.8-0.6,1.1-0.8c0.2-0.2,0.4-0.3,0.4-0.3s-0.2,0-0.5,0.1
	c-0.3,0.1-0.7,0.2-1.3,0.3c-1.1,0.3-2.6,0.7-4.4,1.3c-1.8,0.6-3.9,1.3-6.1,2.2c-0.6,0.2-1.1,0.4-1.7,0.7c-0.1,0.1-0.3,0.1-0.4,0.2
	c-1.3-2.3-2.9-4.5-4.8-6.3c0.1-0.1,0.2-0.3,0.3-0.4c0.4-0.5,0.7-1,1.1-1.4c1.4-1.9,2.7-3.7,3.7-5.3c1-1.6,1.8-3,2.4-4
	c0.3-0.5,0.5-0.9,0.6-1.2c0.1-0.3,0.2-0.4,0.2-0.4S51.2,8.8,51,9c-0.2,0.2-0.6,0.5-1,0.8c-0.9,0.7-2.1,1.8-3.4,3.1
	c-1.4,1.3-2.9,2.9-4.6,4.6c-0.4,0.4-0.8,0.9-1.2,1.3c-0.1,0.1-0.2,0.2-0.3,0.4c-2.1-1.5-4.5-2.8-7.1-3.6c0-0.2,0.1-0.3,0.1-0.5
	c0.1-0.6,0.2-1.2,0.3-1.8c0.4-2.3,0.8-4.5,1-6.4c0.2-1.9,0.4-3.5,0.4-4.6c0-0.6,0-1,0-1.3c0-0.3,0-0.5,0-0.5S35.1,0.8,35,1.1
	c-0.1,0.3-0.3,0.7-0.6,1.2c-0.5,1-1.1,2.5-1.8,4.3c-0.7,1.8-1.4,3.9-2.1,6.2c-0.2,0.6-0.3,1.1-0.5,1.7c0,0.2-0.1,0.3-0.1,0.5
	c-1.4-0.2-2.8-0.4-4.3-0.4c-1.2,0-2.4,0.1-3.6,0.3c0-0.2-0.1-0.3-0.1-0.5c-0.2-0.6-0.3-1.2-0.5-1.7c-0.6-2.3-1.3-4.4-1.9-6.2
	C18.9,4.5,18.3,3,17.9,2c-0.2-0.5-0.4-0.9-0.5-1.2c-0.1-0.3-0.2-0.4-0.2-0.4s0,0.2,0,0.5c0,0.3,0,0.7,0,1.3c0,1.1,0.1,2.7,0.3,4.6
	c0.2,1.9,0.4,4.1,0.8,6.4c0.1,0.6,0.2,1.2,0.3,1.8c0,0.2,0.1,0.3,0.1,0.5c-2.6,0.7-5,1.9-7.2,3.4c-0.1-0.1-0.2-0.3-0.3-0.4
	c-0.4-0.5-0.8-0.9-1.2-1.4c-1.6-1.8-3.1-3.4-4.4-4.8C4.2,11,3,9.9,2.1,9.2c-0.4-0.4-0.8-0.7-1-0.8C0.9,8.1,0.8,8,0.8,8
	S0.9,8.2,1,8.4c0.1,0.3,0.3,0.7,0.6,1.2c0.5,1,1.3,2.4,2.3,4c1,1.6,2.2,3.5,3.5,5.4c0.3,0.5,0.7,1,1,1.5c0.1,0.1,0.2,0.3,0.3,0.4
	c-0.8,0.7-1.6,1.5-2.4,2.4l15.2,12.8c1.1,1.1,2,1.9,2.7,2.6c0.4,0.4,0.8,0.7,1,0.9c0.2,0.2,0.4,0.3,0.4,0.3s0.1,0.1,0.4,0.3
	c0.2,0.2,0.6,0.5,1,0.8c0.6,0.4,1.3,1,2.1,1.5l16.1,13.5c0.8-1,1.6-2,2.2-3.1c0.1,0.1,0.3,0.1,0.4,0.2c0.6,0.3,1.1,0.5,1.6,0.7
	c2.2,1,4.2,1.8,6,2.4c1.8,0.7,3.3,1.1,4.4,1.5c0.5,0.2,1,0.3,1.3,0.3c0.3,0.1,0.5,0.1,0.5,0.1s-0.1-0.1-0.4-0.3
	c-0.2-0.2-0.6-0.5-1-0.8c-0.9-0.7-2.2-1.6-3.8-2.7C54.9,53.4,53,52.2,51,51c-0.5-0.3-1-0.6-1.6-0.9c-0.1-0.1-0.3-0.2-0.4-0.2
	c1-2.4,1.7-5,1.9-7.7c0.2,0,0.3,0,0.5,0c0.6,0,1.2,0,1.8-0.1c2.4-0.1,4.6-0.2,6.5-0.4c1.9-0.2,3.5-0.4,4.6-0.6
	c0.6-0.1,1-0.2,1.3-0.2c0.3-0.1,0.5-0.1,0.5-0.1S65.9,40.7,65.6,40.6z"/>
<path class="st1" d="M6.1,23.7c-3.6,4.4-5.8,10-5.8,16.2c0,14,11.4,25.4,25.4,25.4c7.7,0,14.6-3.5,19.3-8.9L6.1,23.7z M11.5,48.6
	c-1.1,0-2-0.9-2-2c0-0.1,0-0.2,0-0.2c0.1-0.5,0.3-1,0.7-1.3c0.3-0.4,0.7-0.8,1-1.2c0.6-0.9,0.6-1.8,0.6-1.8s1.7,1.1,1.7,4.5
	C13.5,47.7,12.6,48.6,11.5,48.6z M16.3,61.2c-1.1,0-2-0.9-2-2c0-0.1,0-0.2,0-0.2c0.1-0.5,0.3-1,0.7-1.3c0.3-0.4,0.7-0.8,1-1.2
	c0.6-0.9,0.6-1.8,0.6-1.8s1.7,1.1,1.7,4.5C18.3,60.3,17.4,61.2,16.3,61.2z M27.5,60.2c-1.1,0-2-0.9-2-2c0-0.1,0-0.2,0-0.2
	c0.1-0.5,0.3-1,0.7-1.3c0.3-0.4,0.7-0.8,1-1.2c0.6-0.9,0.6-1.8,0.6-1.8s1.7,1.1,1.7,4.5C29.4,59.3,28.6,60.2,27.5,60.2z"/>
</svg>
